<svg width="208" height="423" viewBox="0 0 208 423" fill="none" xmlns="http://www.w3.org/2000/svg">
<g clip-path="url(#clip0_125_3746)">
<path d="M47.4808 144.805C43.2076 140.448 37.5006 139.125 34.7341 141.851C31.9676 144.576 33.1883 150.316 37.4636 154.674C39.1469 156.438 41.2271 157.773 43.5305 158.566L61.8677 176.798L70.222 167.993L51.2576 150.955C50.5059 148.632 49.2097 146.523 47.4776 144.805H47.4808Z" fill="#ED9DA0"/>
<path d="M106.125 129.755L86.899 172.493L56.1954 155.842L45.2102 161.686C45.2102 161.686 70.3075 203.728 87.492 198.942C104.677 194.156 135.191 150.758 129.695 137.365C124.198 123.972 106.126 129.753 106.126 129.753L106.125 129.755Z" fill="#E6E6E6"/>
<path d="M114.556 414.58H100.536L93.8682 360.398H114.559L114.556 414.58Z" fill="#ED9DA0"/>
<path d="M66.525 414.261C66.0887 414.998 65.8582 417.375 65.8582 418.232C65.8582 419.497 66.3594 420.709 67.2517 421.603C68.144 422.497 69.3543 423 70.6162 423H114.031C114.457 423 114.88 422.915 115.273 422.752C115.667 422.589 116.025 422.349 116.326 422.047C116.628 421.745 116.867 421.386 117.03 420.992C117.193 420.597 117.277 420.174 117.277 419.747V417.936C117.277 417.936 119.425 412.491 115.003 405.783C115.003 405.783 109.507 411.037 101.295 402.808L98.874 398.413L81.345 411.258L71.6291 412.458C69.5035 412.722 67.6197 412.417 66.5255 414.262L66.525 414.261Z" fill="#090814"/>
<path d="M103.947 132.498L103.664 113.552L115.323 106.269L128.002 121.81L103.947 132.498Z" fill="#ED9DA0"/>
<path d="M103.911 119.447C115.364 119.447 124.648 110.145 124.648 98.669C124.648 87.1934 115.364 77.8906 103.911 77.8906C92.4584 77.8906 83.1741 87.1934 83.1741 98.669C83.1741 110.145 92.4584 119.447 103.911 119.447Z" fill="#ED9DA0"/>
<path d="M75.6299 257.778L94.9473 389.492H119.184L115.961 314.305L114.265 274.771L119.184 255.953C120.745 252.956 122.125 249.866 123.315 246.702C125.445 240.981 127.127 234.122 124.63 230.868C123.711 229.669 121.322 228.781 118.076 228.119C115.832 227.682 113.568 227.359 111.291 227.151C96.9589 225.73 76.5716 226.618 76.5716 226.618L76.0535 243.755L75.766 253.323L75.6294 257.775L75.6299 257.778Z" fill="#16404D"/>
<path d="M139.25 408.138L125.381 410.18L110.916 357.547L131.385 354.534L139.25 408.138Z" fill="#ED9DA0"/>
<path d="M91.6846 414.824C91.3596 415.617 91.4767 418.002 91.6012 418.85C91.7848 420.101 92.4568 421.227 93.4694 421.982C94.482 422.736 95.7523 423.057 97.0007 422.873L139.954 416.545C140.806 416.42 141.573 415.961 142.086 415.268C142.6 414.576 142.818 413.708 142.693 412.855L142.429 411.063C142.429 411.063 143.764 405.364 138.415 399.371C138.415 399.371 133.741 405.37 124.422 398.426L121.388 394.43L105.911 409.693L96.4732 412.294C94.4083 412.864 92.4997 412.839 91.6856 414.824H91.6846Z" fill="#090814"/>
<path d="M75.3256 235.811L77.9755 258.678L92.4251 306.857L116.211 386.177L140.187 382.647L118.669 269.863L120.8 250.524C120.8 250.524 121.493 248.601 122.289 245.787C123.868 240.219 125.848 231.153 123.669 226.527C123.398 225.925 123.018 225.377 122.549 224.912C121.693 224.079 119.951 223.573 117.618 223.305C107.866 222.201 87.7816 225.359 78.8428 226.91L75.324 235.811H75.3256Z" fill="#16404D"/>
<path d="M125.337 117.801L101.779 129.132C101.779 129.132 76.8076 203.251 76.8076 207.028C76.8076 210.805 69.7384 213.165 73.9805 217.414C78.2225 221.663 66.0883 225.261 72.6257 228.654C79.1632 232.047 119.947 250.612 124.482 248.938C136.989 244.321 123.954 227.355 123.954 227.355C123.954 227.355 133.349 219.773 131.936 215.997C130.523 212.22 140.417 139.989 140.417 139.989L125.34 117.8L125.337 117.801Z" fill="#E6E6E6"/>
<path d="M105.177 103.646L102.51 108.991C102.51 108.991 99.8427 99.3704 95.5753 97.2316C91.308 95.0929 90.7746 91.8864 90.7746 91.8864C90.7746 91.8864 85.44 98.8349 81.706 97.2316C77.9719 95.6284 76.3713 94.559 80.6393 88.1449C84.9072 81.7308 83.8399 84.9379 83.8399 84.9379C83.8399 84.9379 87.5739 79.5926 87.0406 81.1964C86.5072 82.8002 90.2412 76.9205 90.2412 78.5238C90.2412 80.1271 92.9086 75.3168 92.9086 76.9205C92.9086 78.5243 104.111 73.1791 102.51 75.3173C100.909 77.4555 112.111 71.0414 117.447 79.5932C119.389 82.7061 124.829 91.8869 124.829 91.8869L125.076 107.388L120.007 111.664C120.007 111.664 111.045 97.2322 105.177 103.646Z" fill="#090814"/>
<path d="M69.4221 169.81L43.7312 198.898L6.20662 165.662L31.899 136.573L69.4221 169.81Z" fill="#FFAB43"/>
<path d="M35.2224 153.923L23.8275 166.845C23.1745 167.586 23.2437 168.716 23.982 169.369C24.7203 170.023 25.848 169.953 26.5009 169.212L37.8959 156.29C38.5488 155.549 38.4796 154.419 37.7414 153.765C37.0031 153.112 35.8753 153.182 35.2224 153.923Z" fill="white"/>
<path d="M42.1753 160.085L30.7803 173.007C30.1274 173.748 30.1966 174.878 30.9349 175.531C31.6732 176.185 32.8009 176.115 33.4538 175.374L44.8488 162.452C45.5017 161.711 45.4325 160.581 44.6942 159.928C43.956 159.274 42.8282 159.344 42.1753 160.085Z" fill="white"/>
<path d="M49.1282 166.247L37.7332 179.17C37.0803 179.91 37.1495 181.04 37.8878 181.694C38.626 182.347 39.7538 182.277 40.4067 181.536L51.8017 168.614C52.4546 167.873 52.3854 166.743 51.6471 166.09C50.9089 165.436 49.7811 165.507 49.1282 166.247Z" fill="white"/>
<path d="M53.5534 183.112C47.707 181.381 42.0765 183.001 40.9776 186.729C39.8787 190.457 43.7277 194.881 49.5767 196.614C51.9036 197.337 54.3696 197.492 56.7683 197.065L81.6329 204.084L84.6716 192.323L59.8371 186.652C58.0546 184.986 55.8999 183.773 53.5534 183.114V183.112Z" fill="#ED9DA0"/>
<path d="M97.5331 141.428L101.43 188.144L66.5219 188.52L59.7471 198.973C59.7471 198.973 102.057 223.521 114.762 210.978C127.468 198.434 133.121 145.652 121.824 136.617C110.527 127.582 97.5331 141.428 97.5331 141.428Z" fill="#E6E6E6"/>
<path d="M197.366 51.4953C196.637 52.665 195.804 53.7668 194.877 54.7873C193.585 56.0214 192.135 57.078 190.564 57.9292C187.544 59.5793 185.415 59.5685 182.598 61.2722C182.276 61.3043 181.958 61.3155 181.639 61.3217C181.003 61.3308 180.058 62.7341 179.423 62.6794C179.418 62.6806 179.414 62.6783 179.409 62.68C179.103 62.8393 178.84 63.0701 178.642 63.353L178.638 63.3597C177.506 64.6326 175.488 67.3998 174.175 68.9618C174.013 69.1488 173.864 69.3209 173.727 69.4681C173.361 69.8705 173.095 70.1071 172.978 70.0833C171.521 69.8022 171.41 68.8674 170.02 68.2306C169.272 67.8907 165.396 66.2499 164.68 65.8011C162.646 64.5271 161.978 63.1433 160.795 61.3681C160.711 61.2468 160.629 61.1218 160.54 60.9932C160.505 60.9485 160.48 60.9056 160.448 60.8625C160.1 60.3655 162.809 55.0242 163.56 52.8311C163.559 52.8291 163.56 52.8269 163.56 52.8249C163.561 52.8229 163.562 52.8209 163.563 52.8193C163.719 52.3632 163.79 52.0458 163.73 51.9356L163.686 51.853C163.498 51.5016 163.327 51.1386 163.166 50.7725C163.235 46.8882 161.641 42.1536 162.765 36.7508C163.313 34.8403 164.118 33.0138 165.159 31.322C166.473 29.1904 168.195 27.3402 170.225 25.8778C172.256 24.4154 174.555 23.3697 176.991 22.8007C179.426 22.2317 181.951 22.1507 184.419 22.5622C186.887 22.9738 189.25 23.8699 191.371 25.1989C193.493 26.528 195.332 28.2639 196.783 30.3068C198.234 32.3497 199.267 34.6593 199.824 37.1029C200.381 39.5465 200.451 42.076 200.029 44.5459C199.607 47.0158 198.702 49.3777 197.366 51.4953Z" fill="#E6E6E6"/>
<path d="M194.878 54.7873C193.586 56.0214 192.136 57.078 190.565 57.9293C187.545 59.5794 185.416 59.5685 182.598 61.2723C180.723 62.4084 178.544 64.3062 175.587 67.9567C175.412 68.1716 175.308 68.4772 175.132 68.6871C174.738 69.1497 174.888 69.1156 174.291 69.3826C174.101 69.3729 174.085 69.2077 174.175 68.9618C174.443 68.3683 174.783 67.8096 175.185 67.2977C176.198 65.8702 177.355 64.5505 178.637 63.3594L178.641 63.3527C178.898 63.1157 179.156 62.8927 179.408 62.6801C183.823 58.9932 187.941 58.6485 190.727 57.0164C205.347 48.4715 201.862 26.5288 185.181 22.9537C184.285 22.7634 184.228 22.9427 184.176 22.9377C182.877 22.7416 181.925 22.4155 180.511 22.4682C171.923 22.7994 164.693 29.5695 163.237 37.9652C162.45 42.5103 164.258 46.4849 163.686 51.8513C163.656 52.1651 163.615 52.4872 163.563 52.8176C163.561 52.8192 163.561 52.8211 163.56 52.8232C163.559 52.8252 163.559 52.8274 163.56 52.8294C163.065 55.7139 162.041 58.4813 160.54 60.9918C160.515 61.0385 160.493 61.0816 160.467 61.1241C160.579 61.208 160.69 61.2868 160.795 61.3667C162.446 62.6115 163.402 63.5989 164.176 63.6626L164.779 64.1319C164.806 64.565 168.624 66.4488 169.202 66.8012L169.35 66.8937C170.762 67.8292 172.223 68.688 173.727 69.4663C173.804 69.505 173.885 69.5422 173.964 69.5778C174.046 69.6599 174.094 69.7703 174.097 69.8865C174.1 70.0026 174.059 70.1155 173.982 70.2021C173.768 70.6446 172.333 71.4161 172.016 71.4054C171.096 71.3783 159.994 64.7035 159.408 63.3067C159.235 62.9011 159.206 62.4492 159.324 62.0248C159.441 61.6004 159.699 61.2287 160.055 60.9705C160.093 60.8659 159.853 60.3497 159.89 60.2537C160.392 59.01 162.395 56.3176 163.044 52.2717C163.122 51.7749 163.163 51.2731 163.167 50.7702C163.235 46.8868 161.641 42.1531 162.767 36.7474C163.392 33.8582 164.668 31.1509 166.498 28.8329C170.938 23.0109 180.064 20.2612 187.003 22.4708C201.528 27.0931 205.009 45.0796 194.878 54.7873Z" fill="#010001"/>
<path d="M171.95 71.8516C172.373 73.4955 171.608 73.4827 170.402 74.3351C169.876 73.8138 158.981 67.9231 157.854 66.4764C157.68 66.2355 157.57 65.9543 157.534 65.6592C157.498 65.3641 157.537 65.0647 157.648 64.7892C157.759 64.5136 157.938 64.2708 158.169 64.0836C158.399 63.8964 158.673 63.7709 158.965 63.7189C162.979 66.9039 167.335 69.6316 171.95 71.8516Z" fill="#010001"/>
<path d="M170.71 75.14C170.551 76.3092 169.418 76.3779 168.614 76.8744L167.794 76.564L156.359 69.1987C155.747 68.6291 155.914 67.3809 156.138 66.6229C156.18 66.5285 156.249 66.4491 156.338 66.3953C156.426 66.3415 156.528 66.316 156.631 66.3219L157.761 66.6237C161.378 69.3183 165.141 71.8106 169.033 74.0892C169.38 74.1003 169.718 74.2033 170.013 74.3879C170.308 74.5725 170.548 74.832 170.71 75.14Z" fill="#010001"/>
<path d="M168.676 57.323L168.373 57.1335L171.46 52.1837L173.257 36.8756L173.611 36.9174L171.807 52.3033L168.676 57.323Z" fill="#0F0F10"/>
<path d="M196.634 16.5787C197.515 16.5442 194.445 21.4889 194.156 21.531C193.055 21.6868 196.339 16.5904 196.634 16.5787Z" fill="#010001"/>
<path d="M191.4 13.9102C192.081 13.9004 190.285 19.2774 190.061 19.474C188.79 20.5924 191.08 13.914 191.4 13.9102Z" fill="#010001"/>
<path d="M201.32 20.1237C201.994 20.3343 198.185 24.2695 197.938 24.4083C195.6 25.7164 200.954 20.0098 201.32 20.1237Z" fill="#010001"/>
<path d="M173.376 60.2778L176.559 54.622L176.578 54.6043L187.131 44.2792L187.381 44.5352L176.845 54.8422L173.687 60.4536L173.376 60.2778Z" fill="#0F0F10"/>
<path d="M62.0398 53.3766L41.0576 62.296C40.61 62.4871 40.1249 62.5741 39.6388 62.5505C39.1526 62.527 38.678 62.3935 38.2504 62.1601C37.8293 61.9343 37.4647 61.6159 37.1839 61.2288C36.903 60.8416 36.7132 60.3959 36.6288 59.9249C34.8887 50.2893 30.9033 41.1996 24.9971 33.3962C24.579 32.8438 24.3505 32.1707 24.3459 31.4777C24.3413 30.7846 24.5609 30.1089 24.9717 29.5519C30.6918 21.8842 38.8657 18.5693 49.2663 19.7006C49.7568 19.7492 50.2299 19.9094 50.6495 20.1691C51.069 20.4288 51.4239 20.7811 51.687 21.1992C57.1737 29.9779 61.292 39.5436 63.8993 49.5657C64.1026 50.3193 64.0264 51.1209 63.6849 51.8219C63.3433 52.523 62.7596 53.0758 62.0421 53.378L62.0398 53.3766Z" fill="#E6E6E6"/>
<path d="M43.586 37.1366L36.3655 40.2064C35.9663 40.3761 35.5161 40.3799 35.1138 40.2168C34.7116 40.0537 34.3903 39.7371 34.2206 39.3368C34.0509 38.9364 34.0468 38.485 34.2091 38.0819C34.3713 37.6788 34.6868 37.3569 35.086 37.1872L42.3065 34.1174C42.7057 33.9477 43.156 33.944 43.5582 34.1071C43.9605 34.2702 44.2818 34.5867 44.4515 34.9871C44.6211 35.3875 44.6253 35.8389 44.463 36.242C44.3007 36.6451 43.9852 36.9669 43.586 37.1366Z" fill="#090814"/>
<path d="M54.9405 39.3435L38.8909 46.1678C38.4916 46.3376 38.0414 46.3413 37.6391 46.1782C37.2368 46.015 36.9155 45.6984 36.7458 45.298C36.5761 44.8975 36.5719 44.446 36.7342 44.0429C36.8965 43.6397 37.212 43.3178 37.6112 43.148L53.6609 36.3237C54.0602 36.1539 54.5104 36.1502 54.9127 36.3133C55.315 36.4765 55.6363 36.7931 55.806 37.1935C55.9757 37.594 55.9799 38.0454 55.8175 38.4486C55.6552 38.8518 55.3398 39.1737 54.9405 39.3435Z" fill="#090814"/>
<path d="M41.3517 62.1616C40.8551 62.3742 40.3167 62.471 39.7772 62.4445C39.2376 62.418 38.711 62.269 38.2371 62.0087C37.7684 61.7578 37.3627 61.4033 37.0509 60.972C36.739 60.5407 36.5292 60.044 36.4373 59.5195C35.5743 54.7464 34.1546 50.0909 32.2074 45.649C30.2592 41.2069 27.7969 37.0093 24.8712 33.1427C24.4061 32.5287 24.1518 31.7804 24.1463 31.0099C24.1409 30.2393 24.3846 29.488 24.8411 28.8684C27.4431 25.2735 30.9597 22.4445 35.0247 20.6763C39.2151 18.895 44.0731 18.289 49.4655 18.8747C50.0098 18.9272 50.535 19.1044 51.0004 19.3926C51.4659 19.6808 51.8591 20.0723 52.1497 20.5369C57.6578 29.3462 61.7908 38.9465 64.4057 49.005C64.6299 49.8408 64.5452 50.7293 64.1673 51.5069C63.7893 52.2844 63.1435 52.8984 62.3489 53.2358L41.3517 62.1616ZM35.3051 21.3377C31.3575 23.0569 27.9429 25.8059 25.417 29.2986C25.0531 29.7933 24.8589 30.393 24.8634 31.0079C24.868 31.6228 25.071 32.2199 25.4422 32.7098C28.4019 36.6212 30.8928 40.8673 32.8638 45.3608C34.8332 49.8546 36.269 54.5643 37.1416 59.3931C37.215 59.8111 37.3824 60.207 37.6312 60.5507C37.88 60.8943 38.2036 61.1767 38.5774 61.3763C38.9567 61.5849 39.3784 61.7045 39.8104 61.7258C40.2424 61.7472 40.6735 61.6698 41.0711 61.4996L62.0669 52.5745C62.7027 52.3046 63.2194 51.8132 63.5217 51.191C63.824 50.5688 63.8915 49.8578 63.7116 49.1892C61.1151 39.201 57.0111 29.6678 51.5417 20.9201C51.3086 20.548 50.9933 20.2345 50.6203 20.004C50.2472 19.7734 49.8263 19.6319 49.3901 19.5903C44.1192 19.0167 39.3819 19.6048 35.3051 21.3377Z" fill="#090814"/>
<path d="M111.017 35.5922C120.713 35.5922 128.574 27.7158 128.574 17.9997C128.574 8.28365 120.713 0.407227 111.017 0.407227C101.32 0.407227 93.4592 8.28365 93.4592 17.9997C93.4592 27.7158 101.32 35.5922 111.017 35.5922Z" fill="#E6E6E6"/>
<path d="M120.149 7.69859C119.717 7.45094 119.206 7.38303 118.724 7.50947C118.243 7.6359 117.83 7.94658 117.575 8.37468L111.315 20.8038C109.615 18.16 107.472 15.8309 104.979 13.9197C104.175 13.297 102.872 13.7971 102.405 14.5958C101.837 15.5695 102.274 16.5517 103.08 17.1749C105.972 19.465 108.263 22.428 109.753 25.8065C110.328 27.0783 112.402 26.9979 113.002 25.8065L120.824 10.2787C121.065 9.84437 121.128 9.33402 121.003 8.85372C120.877 8.37341 120.572 7.96009 120.15 7.69965L120.149 7.69859Z" fill="#090814"/>
<path d="M111.017 3.10298e-05C115.161 0.0024487 119.177 1.44031 122.385 4.07003C125.592 6.69975 127.794 10.3596 128.617 14.4297C129.44 18.4997 128.833 22.7296 126.9 26.4028C124.967 30.076 121.826 32.9667 118.009 34.5851C113.623 36.42 108.69 36.4392 104.291 34.6385C99.8907 32.8377 96.3821 29.3636 94.5328 24.9767C92.6834 20.5898 92.644 15.6474 94.4231 11.2314C96.2022 6.81546 99.6549 3.28562 104.025 1.41458C106.237 0.476665 108.615 -0.00445103 111.017 3.10298e-05ZM111.017 35.185C114.972 35.1807 118.805 33.8069 121.865 31.2963C124.926 28.7857 127.027 25.2925 127.812 21.408C128.598 17.5235 128.019 13.4864 126.175 9.98015C124.331 6.47389 121.334 3.71386 117.692 2.16731C113.513 0.455759 108.828 0.464199 104.655 2.1908C100.481 3.9174 97.1556 7.22294 95.3987 11.3905C93.6417 15.5581 93.5953 20.2517 95.2695 24.4533C96.9437 28.655 100.204 32.0259 104.342 33.835C106.454 34.7303 108.724 35.1894 111.017 35.185Z" fill="#090814"/>
</g>
<defs>
<clipPath id="clip0_125_3746">
<rect width="208" height="423" fill="white"/>
</clipPath>
</defs>
</svg>
