<svg width="124" height="124" viewBox="0 0 124 124" fill="none" xmlns="http://www.w3.org/2000/svg">
<g clip-path="url(#clip0_103_3761)">
<path d="M62.1292 98.1667C57.307 98.1667 52.7 97.2625 48.3084 95.4542C43.9167 93.6459 39.9986 91.0195 36.5542 87.575C33.1097 84.1306 30.4834 80.2125 28.675 75.8209C26.8667 71.4292 25.9625 66.8222 25.9625 62C25.9625 57.6084 26.6945 53.4113 28.1583 49.4089C29.6222 45.4064 31.775 41.7673 34.6167 38.4917C35.7361 37.2861 37.1139 36.878 38.75 37.2672C40.3861 37.6564 41.5486 38.7104 42.2375 40.4292C44.0459 45.1653 46.3054 49.6431 49.0162 53.8625C51.727 58.082 54.8924 62 58.5125 65.6167C62.1326 69.2334 66.0507 72.3988 70.2667 75.113C74.4827 77.8272 78.9605 80.0868 83.7 81.8917C85.4222 82.5806 86.478 83.7431 86.8672 85.3792C87.2564 87.0153 86.8465 88.3931 85.6375 89.5125C82.3653 92.3542 78.7262 94.507 74.7204 95.9709C70.7145 97.4347 66.5191 98.1667 62.1343 98.1667M90.9385 73.3667C89.5607 72.9361 88.5705 72.0526 87.9677 70.7162C87.3649 69.3797 87.1927 67.9813 87.451 66.5209C88.226 62.3875 87.9677 58.3179 86.676 54.312C85.3843 50.3061 83.2316 46.798 80.2177 43.7875C77.2038 40.7771 73.737 38.6467 69.8172 37.3964C65.8974 36.146 61.9156 35.8653 57.8719 36.5542C56.408 36.8125 55.0302 36.6403 53.7385 36.0375C52.4468 35.4347 51.541 34.4445 51.0209 33.0667C50.5007 31.6889 50.5662 30.3542 51.2172 29.0625C51.8682 27.7708 52.8791 26.9528 54.25 26.6084C60.1917 25.3167 66.1333 25.5113 72.075 27.1922C78.0167 28.8731 83.2264 31.9507 87.7042 36.425C92.0959 40.8167 95.1528 45.9834 96.875 51.925C98.5972 57.8667 98.8125 63.8083 97.5209 69.75C97.1764 71.2139 96.3583 72.2903 95.0667 72.9792C93.775 73.6681 92.4024 73.7972 90.9385 73.3667ZM62 15.5C60.5361 15.5 59.3099 15.004 58.3214 14.012C57.3328 13.02 56.8368 11.7938 56.8334 10.3334V5.16668C56.8334 3.7028 57.3294 2.47657 58.3214 1.48802C59.3134 0.499462 60.5396 0.00346226 62 1.78161e-05C63.4605 -0.00342663 64.6884 0.492573 65.6839 1.48802C66.6793 2.48346 67.1736 3.70968 67.1667 5.16668V10.3334C67.1667 11.7972 66.6707 13.0252 65.6787 14.0172C64.6867 15.0092 63.4605 15.5035 62 15.5ZM62 124C60.5361 124 59.3099 123.504 58.3214 122.512C57.3328 121.52 56.8368 120.294 56.8334 118.833V113.667C56.8334 112.203 57.3294 110.977 58.3214 109.988C59.3134 108.999 60.5396 108.503 62 108.5C63.4605 108.497 64.6884 108.993 65.6839 109.988C66.6793 110.983 67.1736 112.21 67.1667 113.667V118.833C67.1667 120.297 66.6707 121.525 65.6787 122.517C64.6867 123.509 63.4605 124.003 62 124ZM94.9375 29.1917C93.9042 28.1583 93.3875 26.9304 93.3875 25.5078C93.3875 24.0853 93.9042 22.8591 94.9375 21.8292L98.5542 18.2125C99.5014 17.2653 100.686 16.7917 102.109 16.7917C103.531 16.7917 104.758 17.2653 105.788 18.2125C106.821 19.2458 107.338 20.4721 107.338 21.8912C107.338 23.3103 106.821 24.5382 105.788 25.575L102.171 29.1917C101.138 30.225 99.932 30.7417 98.5542 30.7417C97.1764 30.7417 95.9708 30.225 94.9375 29.1917ZM18.2125 105.788C17.1792 104.754 16.6625 103.528 16.6625 102.109C16.6625 100.69 17.1792 99.4618 18.2125 98.425L21.8292 94.8083C22.8625 93.775 24.0681 93.2583 25.4459 93.2583C26.8236 93.2583 28.0292 93.775 29.0625 94.8083C30.0958 95.8417 30.6125 97.0696 30.6125 98.4922C30.6125 99.9147 30.0958 101.141 29.0625 102.171L25.4459 105.788C24.4986 106.735 23.3155 107.208 21.8963 107.208C20.4772 107.208 19.2493 106.735 18.2125 105.788ZM113.667 67.1667C112.203 67.1667 110.977 66.6707 109.988 65.6787C108.999 64.6867 108.503 63.4605 108.5 62C108.497 60.5396 108.993 59.3134 109.988 58.3214C110.983 57.3294 112.21 56.8334 113.667 56.8334H118.833C120.297 56.8334 121.525 57.3294 122.517 58.3214C123.509 59.3134 124.003 60.5396 124 62C123.997 63.4605 123.501 64.6884 122.512 65.6839C121.523 66.6793 120.297 67.1736 118.833 67.1667H113.667ZM5.16668 67.1667C3.7028 67.1667 2.47657 66.6707 1.48802 65.6787C0.499462 64.6867 0.00346226 63.4605 1.78161e-05 62C-0.00342663 60.5396 0.492573 59.3134 1.48802 58.3214C2.48346 57.3294 3.70968 56.8334 5.16668 56.8334H10.3334C11.7972 56.8334 13.0252 57.3294 14.0172 58.3214C15.0092 59.3134 15.5035 60.5396 15.5 62C15.4966 63.4605 15.0006 64.6884 14.012 65.6839C13.0235 66.6793 11.7972 67.1736 10.3334 67.1667H5.16668ZM105.788 105.788C104.754 106.821 103.528 107.338 102.109 107.338C100.69 107.338 99.4618 106.821 98.425 105.788L94.8083 102.171C93.775 101.138 93.2583 99.932 93.2583 98.5542C93.2583 97.1764 93.775 95.9708 94.8083 94.9375C95.8417 93.9042 97.0696 93.3875 98.4922 93.3875C99.9147 93.3875 101.141 93.9042 102.171 94.9375L105.788 98.5542C106.735 99.5014 107.208 100.686 107.208 102.109C107.208 103.531 106.735 104.758 105.788 105.788ZM29.1917 29.0625C28.1583 30.0958 26.9321 30.6125 25.513 30.6125C24.0939 30.6125 22.866 30.0958 21.8292 29.0625L18.2125 25.4459C17.2653 24.4986 16.7917 23.3155 16.7917 21.8963C16.7917 20.4772 17.2653 19.2493 18.2125 18.2125C19.2458 17.1792 20.4738 16.6625 21.8963 16.6625C23.3189 16.6625 24.5451 17.1792 25.575 18.2125L29.1917 21.8292C30.225 22.8625 30.7417 24.0681 30.7417 25.4459C30.7417 26.8236 30.225 28.0292 29.1917 29.0625Z" fill="#16404D"/>
</g>
<defs>
<clipPath id="clip0_103_3761">
<rect width="124" height="124" fill="white"/>
</clipPath>
</defs>
</svg>
