<svg width="124" height="124" viewBox="0 0 124 124" fill="none" xmlns="http://www.w3.org/2000/svg">
<path d="M56.8333 77.5002H67.1666M74.9166 113.667L73.2839 111.502C69.6156 106.625 68.7011 99.1692 71.0261 93.0002M49.0833 113.667L50.7159 111.502C54.3843 106.625 55.2988 99.1692 52.9738 93.0002M36.1666 113.667H87.8332M72.3333 10.3335H51.6666C34.7199 10.3335 26.2518 10.3335 20.2481 14.5392C18.0266 16.0947 16.0944 18.0269 14.5389 20.2483C10.3333 26.2468 10.3333 34.7202 10.3333 51.6668C10.3333 68.6135 10.3333 77.0817 14.5389 83.0853C16.0944 85.3068 18.0266 87.239 20.2481 88.7945C26.2466 93.0002 34.7199 93.0002 51.6666 93.0002H72.3333C89.2799 93.0002 97.7481 93.0002 103.752 88.7945C105.973 87.239 107.905 85.3068 109.461 83.0853C113.667 77.0868 113.667 68.6135 113.667 51.6668C113.667 34.7202 113.667 26.252 109.461 20.2483C107.905 18.0269 105.973 16.0947 103.752 14.5392C97.7532 10.3335 89.2799 10.3335 72.3333 10.3335Z" stroke="#16404D" stroke-width="1.5" stroke-linecap="round" stroke-linejoin="round"/>
</svg>
