<svg width="15" height="16" viewBox="0 0 15 16" fill="none" xmlns="http://www.w3.org/2000/svg">
<path d="M6.34615 2.28571H8.65385C8.65385 1.98261 8.53228 1.69192 8.31589 1.47759C8.0995 1.26327 7.80602 1.14286 7.5 1.14286C7.19398 1.14286 6.9005 1.26327 6.68411 1.47759C6.46772 1.69192 6.34615 1.98261 6.34615 2.28571ZM5.19231 2.28571C5.19231 1.67951 5.43544 1.09812 5.86822 0.66947C6.30099 0.240816 6.88796 0 7.5 0C8.11204 0 8.69901 0.240816 9.13178 0.66947C9.56456 1.09812 9.80769 1.67951 9.80769 2.28571H14.4231C14.5761 2.28571 14.7228 2.34592 14.831 2.45308C14.9392 2.56025 15 2.70559 15 2.85714C15 3.0087 14.9392 3.15404 14.831 3.2612C14.7228 3.36837 14.5761 3.42857 14.4231 3.42857H13.7723L12.3819 13.5291C12.2876 14.2136 11.9461 14.8411 11.4207 15.2954C10.8952 15.7497 10.2213 16 9.52385 16H5.47615C4.77867 16 4.10482 15.7497 3.57935 15.2954C3.05387 14.8411 2.71238 14.2136 2.61808 13.5291L1.22769 3.42857H0.576923C0.423914 3.42857 0.277171 3.36837 0.168977 3.2612C0.0607828 3.15404 0 3.0087 0 2.85714C0 2.70559 0.0607828 2.56025 0.168977 2.45308C0.277171 2.34592 0.423914 2.28571 0.576923 2.28571H5.19231ZM6.34615 6.28571C6.34615 6.13416 6.28537 5.98882 6.17718 5.88165C6.06898 5.77449 5.92224 5.71429 5.76923 5.71429C5.61622 5.71429 5.46948 5.77449 5.36128 5.88165C5.25309 5.98882 5.19231 6.13416 5.19231 6.28571V12C5.19231 12.1516 5.25309 12.2969 5.36128 12.4041C5.46948 12.5112 5.61622 12.5714 5.76923 12.5714C5.92224 12.5714 6.06898 12.5112 6.17718 12.4041C6.28537 12.2969 6.34615 12.1516 6.34615 12V6.28571ZM9.23077 5.71429C9.38378 5.71429 9.53052 5.77449 9.63872 5.88165C9.74691 5.98882 9.80769 6.13416 9.80769 6.28571V12C9.80769 12.1516 9.74691 12.2969 9.63872 12.4041C9.53052 12.5112 9.38378 12.5714 9.23077 12.5714C9.07776 12.5714 8.93102 12.5112 8.82282 12.4041C8.71463 12.2969 8.65385 12.1516 8.65385 12V6.28571C8.65385 6.13416 8.71463 5.98882 8.82282 5.88165C8.93102 5.77449 9.07776 5.71429 9.23077 5.71429ZM3.76154 13.3749C3.81816 13.7855 4.02305 14.1619 4.33828 14.4344C4.65351 14.7069 5.05774 14.8571 5.47615 14.8571H9.52385C9.94246 14.8574 10.347 14.7073 10.6624 14.4348C10.9779 14.1622 11.183 13.7857 11.2396 13.3749L12.6081 3.42857H2.39192L3.76154 13.3749Z" fill="#ED9DA0"/>
</svg>
