<svg width="22" height="22" viewBox="0 0 22 22" fill="none" xmlns="http://www.w3.org/2000/svg">
<path d="M17.4169 19.2502L13.4359 15.2691M13.4359 15.2691C14.1168 14.5881 14.657 13.7797 15.0256 12.8899C15.3941 12.0002 15.5838 11.0466 15.5838 10.0835C15.5838 9.12047 15.3941 8.16685 15.0256 7.2771C14.657 6.38736 14.1168 5.57892 13.4359 4.89794C12.7549 4.21696 11.9464 3.67678 11.0567 3.30823C10.1669 2.93969 9.21332 2.75 8.25027 2.75C7.28722 2.75 6.3336 2.93969 5.44385 3.30823C4.55411 3.67678 3.74567 4.21696 3.06469 4.89794C1.68938 6.27324 0.916748 8.13855 0.916748 10.0835C0.916748 12.0285 1.68938 13.8938 3.06469 15.2691C4.43999 16.6444 6.3053 17.417 8.25027 17.417C10.1952 17.417 12.0606 16.6444 13.4359 15.2691Z" stroke="#B7B7B7" stroke-width="1.5" stroke-linecap="round" stroke-linejoin="round"/>
</svg>
