<svg width="26" height="26" viewBox="0 0 26 26" fill="none" xmlns="http://www.w3.org/2000/svg">
<path d="M7.7999 3.8999C6.76556 3.8999 5.77358 4.31079 5.04219 5.04219C4.31079 5.77358 3.8999 6.76556 3.8999 7.7999V18.1999C3.8999 19.2342 4.31079 20.2262 5.04219 20.9576C5.77358 21.689 6.76556 22.0999 7.7999 22.0999H18.1999C19.2342 22.0999 20.2262 21.689 20.9576 20.9576C21.689 20.2262 22.0999 19.2342 22.0999 18.1999V7.7999C22.0999 6.76556 21.689 5.77358 20.9576 5.04219C20.2262 4.31079 19.2342 3.8999 18.1999 3.8999H7.7999ZM17.3601 10.8601L12.1601 16.0601C12.0997 16.1206 12.028 16.1687 11.949 16.2014C11.8701 16.2342 11.7854 16.2511 11.6999 16.2511C11.6144 16.2511 11.5297 16.2342 11.4508 16.2014C11.3718 16.1687 11.3001 16.1206 11.2397 16.0601L8.6397 13.4601C8.51765 13.3381 8.44908 13.1725 8.44908 12.9999C8.44908 12.8273 8.51765 12.6618 8.6397 12.5397C8.76176 12.4177 8.92729 12.3491 9.0999 12.3491C9.27251 12.3491 9.43805 12.4177 9.5601 12.5397L11.6999 14.6808L16.4397 9.9397C16.5618 9.81765 16.7273 9.74908 16.8999 9.74908C17.0725 9.74908 17.2381 9.81765 17.3601 9.9397C17.4822 10.0618 17.5507 10.2273 17.5507 10.3999C17.5507 10.5725 17.4822 10.7381 17.3601 10.8601Z" fill="#FFAB43"/>
</svg>
