<svg width="26" height="26" viewBox="0 0 26 26" fill="none" xmlns="http://www.w3.org/2000/svg">
<path d="M7.7999 3.8999C6.76556 3.8999 5.77358 4.31079 5.04219 5.04219C4.31079 5.77358 3.8999 6.76556 3.8999 7.7999V18.1999C3.8999 19.2342 4.31079 20.2262 5.04219 20.9576C5.77358 21.689 6.76556 22.0999 7.7999 22.0999H18.1999C19.2342 22.0999 20.2262 21.689 20.9576 20.9576C21.689 20.2262 22.0999 19.2342 22.0999 18.1999V7.7999C22.0999 6.76556 21.689 5.77358 20.9576 5.04219C20.2262 4.31079 19.2342 3.8999 18.1999 3.8999H7.7999ZM5.1999 7.7999C5.1999 7.11034 5.47383 6.44902 5.96142 5.96142C6.44902 5.47383 7.11034 5.1999 7.7999 5.1999H18.1999C18.8895 5.1999 19.5508 5.47383 20.0384 5.96142C20.526 6.44902 20.7999 7.11034 20.7999 7.7999V18.1999C20.7999 18.8895 20.526 19.5508 20.0384 20.0384C19.5508 20.526 18.8895 20.7999 18.1999 20.7999H7.7999C7.11034 20.7999 6.44902 20.526 5.96142 20.0384C5.47383 19.5508 5.1999 18.8895 5.1999 18.1999V7.7999ZM17.3601 10.8601C17.4822 10.738 17.5507 10.5725 17.5507 10.3999C17.5507 10.2273 17.4822 10.0618 17.3601 9.9397C17.2381 9.81765 17.0725 9.74908 16.8999 9.74908C16.7273 9.74908 16.5618 9.81765 16.4397 9.9397L11.6999 14.6808L9.5601 12.5397C9.49967 12.4793 9.42792 12.4313 9.34896 12.3986C9.27 12.3659 9.18537 12.3491 9.0999 12.3491C9.01444 12.3491 8.92981 12.3659 8.85084 12.3986C8.77188 12.4313 8.70014 12.4793 8.6397 12.5397C8.57927 12.6001 8.53133 12.6719 8.49862 12.7508C8.46592 12.8298 8.44908 12.9144 8.44908 12.9999C8.44908 13.0854 8.46592 13.17 8.49862 13.249C8.53133 13.3279 8.57927 13.3997 8.6397 13.4601L11.2397 16.0601C11.3001 16.1206 11.3718 16.1687 11.4508 16.2014C11.5297 16.2342 11.6144 16.2511 11.6999 16.2511C11.7854 16.2511 11.8701 16.2342 11.949 16.2014C12.028 16.1687 12.0997 16.1206 12.1601 16.0601L17.3601 10.8601Z" fill="#16404D"/>
</svg>
